<?xml version="1.0" standalone="no"?>
<!DOCTYPE svg PUBLIC "-//W3C//DTD SVG 20010904//EN"
 "http://www.w3.org/TR/2001/REC-SVG-20010904/DTD/svg10.dtd">
<svg version="1.0" xmlns="http://www.w3.org/2000/svg"
 width="320.000000pt" height="320.000000pt" viewBox="0 0 320.000000 320.000000"
 preserveAspectRatio="xMidYMid meet">
<metadata>
Created by potrace 1.14, written by Peter Selinger 2001-2017
</metadata>
<g transform="translate(0.000000,320.000000) scale(0.100000,-0.100000)"
fill="#000000" stroke="none">
<path d="M1552 2893 c-37 -18 -62 -58 -62 -98 0 -34 25 -82 50 -95 16 -8 20
-21 20 -60 l0 -50 45 0 45 0 0 46 c0 37 6 53 30 81 54 61 36 149 -36 179 -42
18 -51 17 -92 -3z"/>
<path d="M1485 2536 c-203 -40 -374 -169 -465 -352 -54 -107 -70 -189 -70
-356 l0 -138 -32 -14 c-46 -19 -86 -59 -108 -108 -18 -39 -20 -68 -20 -303 0
-252 -1 -261 -21 -273 -43 -27 -58 -111 -26 -152 69 -91 207 -45 207 69 0 21
-11 43 -35 70 l-35 38 0 147 c0 86 4 146 10 146 5 0 20 -5 33 -11 23 -11 25
-16 29 -119 4 -97 8 -115 36 -173 40 -81 120 -157 200 -189 56 -23 64 -23 417
-23 l360 0 65 31 c80 38 149 105 187 182 24 50 28 71 31 164 4 110 7 120 50
132 l22 7 0 -153 c0 -144 -1 -154 -21 -166 -28 -18 -50 -74 -43 -111 9 -41 66
-91 105 -91 115 0 160 140 67 208 -17 12 -18 34 -18 275 0 233 -2 266 -19 302
-22 48 -54 79 -104 100 l-37 15 0 153 c0 174 -11 232 -67 345 -46 93 -156 213
-244 265 -132 78 -311 111 -454 83z m268 -211 c81 -21 132 -49 193 -107 70
-66 96 -128 101 -238 6 -110 -18 -163 -87 -198 -45 -22 -48 -23 -370 -20 -318
3 -326 3 -361 26 -55 34 -74 81 -74 182 0 76 4 93 33 152 50 101 137 169 260
203 66 18 235 18 305 0z m15 -807 c39 -39 -17 -100 -58 -63 -34 31 -20 75 25
75 12 0 26 -5 33 -12z m144 -13 c10 -22 9 -29 -10 -47 -18 -19 -25 -20 -47
-10 -16 8 -25 20 -25 35 0 50 62 66 82 22z m126 13 c39 -39 -17 -100 -58 -63
-34 31 -20 75 25 75 12 0 26 -5 33 -12z"/>
<path d="M1245 2044 c-33 -35 -33 -84 -1 -121 19 -22 32 -28 66 -28 73 0 110
67 75 134 -16 33 -33 41 -81 41 -25 0 -42 -8 -59 -26z"/>
<path d="M1833 2048 c-30 -33 -36 -62 -19 -101 17 -41 67 -64 107 -48 96 36
73 171 -29 171 -27 0 -45 -7 -59 -22z"/>
<path d="M1335 728 c21 -68 83 -124 167 -149 50 -15 167 -12 217 6 78 27 151
99 151 148 0 16 -20 17 -271 17 l-270 0 6 -22z"/>
</g>
</svg>
